<mxfile host="Electron" agent="Mozilla/5.0 (Windows NT 10.0; Win64; x64) AppleWebKit/537.36 (KHTML, like Gecko) draw.io/24.7.5 Chrome/126.0.6478.183 Electron/31.3.0 Safari/537.36" version="24.7.5">
  <diagram name="Page-1" id="2YBvvXClWsGukQMizWep">
    <mxGraphModel dx="1038" dy="623" grid="1" gridSize="10" guides="1" tooltips="1" connect="1" arrows="1" fold="1" page="1" pageScale="1" pageWidth="1200" pageHeight="1100" math="0" shadow="0">
      <root>
        <mxCell id="0" />
        <mxCell id="1" parent="0" />
        <mxCell id="_wbm24dfshIdzGIDaGAg-1" value="&lt;h1 style=&quot;margin-top: 0px;&quot;&gt;Create Contact&lt;/h1&gt;" style="text;html=1;whiteSpace=wrap;overflow=hidden;rounded=0;align=center;fillColor=#fff2cc;strokeColor=#d6b656;" parent="1" vertex="1">
          <mxGeometry x="40" y="40" width="210" height="50" as="geometry" />
        </mxCell>
        <mxCell id="_wbm24dfshIdzGIDaGAg-2" value="" style="shape=umlLifeline;perimeter=lifelinePerimeter;whiteSpace=wrap;html=1;container=1;dropTarget=0;collapsible=0;recursiveResize=0;outlineConnect=0;portConstraint=eastwest;newEdgeStyle={&quot;curved&quot;:0,&quot;rounded&quot;:0};participant=umlActor;" parent="1" vertex="1">
          <mxGeometry x="30" y="160" width="20" height="320" as="geometry" />
        </mxCell>
        <mxCell id="_wbm24dfshIdzGIDaGAg-6" value="" style="html=1;points=[[0,0,0,0,5],[0,1,0,0,-5],[1,0,0,0,5],[1,1,0,0,-5]];perimeter=orthogonalPerimeter;outlineConnect=0;targetShapes=umlLifeline;portConstraint=eastwest;newEdgeStyle={&quot;curved&quot;:0,&quot;rounded&quot;:0};fillColor=#fff2cc;strokeColor=#d6b656;" parent="_wbm24dfshIdzGIDaGAg-2" vertex="1">
          <mxGeometry x="5" y="60" width="10" height="260" as="geometry" />
        </mxCell>
        <mxCell id="_wbm24dfshIdzGIDaGAg-3" value="" style="shape=umlLifeline;perimeter=lifelinePerimeter;whiteSpace=wrap;html=1;container=1;dropTarget=0;collapsible=0;recursiveResize=0;outlineConnect=0;portConstraint=eastwest;newEdgeStyle={&quot;curved&quot;:0,&quot;rounded&quot;:0};participant=umlActor;" parent="1" vertex="1">
          <mxGeometry x="980" y="160" width="20" height="320" as="geometry" />
        </mxCell>
        <mxCell id="_wbm24dfshIdzGIDaGAg-7" value="" style="html=1;points=[[0,0,0,0,5],[0,1,0,0,-5],[1,0,0,0,5],[1,1,0,0,-5]];perimeter=orthogonalPerimeter;outlineConnect=0;targetShapes=umlLifeline;portConstraint=eastwest;newEdgeStyle={&quot;curved&quot;:0,&quot;rounded&quot;:0};fillColor=#fff2cc;strokeColor=#d6b656;" parent="_wbm24dfshIdzGIDaGAg-3" vertex="1">
          <mxGeometry x="5" y="60" width="10" height="260" as="geometry" />
        </mxCell>
        <mxCell id="_wbm24dfshIdzGIDaGAg-4" value="Client" style="text;align=center;fontStyle=1;verticalAlign=middle;spacingLeft=3;spacingRight=3;strokeColor=none;rotatable=0;points=[[0,0.5],[1,0.5]];portConstraint=eastwest;html=1;" parent="1" vertex="1">
          <mxGeometry y="130" width="80" height="26" as="geometry" />
        </mxCell>
        <mxCell id="_wbm24dfshIdzGIDaGAg-5" value="DB" style="text;align=center;fontStyle=1;verticalAlign=middle;spacingLeft=3;spacingRight=3;strokeColor=none;rotatable=0;points=[[0,0.5],[1,0.5]];portConstraint=eastwest;html=1;" parent="1" vertex="1">
          <mxGeometry x="950" y="130" width="80" height="26" as="geometry" />
        </mxCell>
        <mxCell id="_wbm24dfshIdzGIDaGAg-8" value=":ContactView" style="shape=umlLifeline;perimeter=lifelinePerimeter;whiteSpace=wrap;html=1;container=1;dropTarget=0;collapsible=0;recursiveResize=0;outlineConnect=0;portConstraint=eastwest;newEdgeStyle={&quot;curved&quot;:0,&quot;rounded&quot;:0};fillColor=#ffe6cc;strokeColor=#d79b00;" parent="1" vertex="1">
          <mxGeometry x="140" y="160" width="100" height="320" as="geometry" />
        </mxCell>
        <mxCell id="_wbm24dfshIdzGIDaGAg-9" value="" style="html=1;points=[[0,0,0,0,5],[0,1,0,0,-5],[1,0,0,0,5],[1,1,0,0,-5]];perimeter=orthogonalPerimeter;outlineConnect=0;targetShapes=umlLifeline;portConstraint=eastwest;newEdgeStyle={&quot;curved&quot;:0,&quot;rounded&quot;:0};fillColor=#ffe6cc;strokeColor=#d79b00;" parent="_wbm24dfshIdzGIDaGAg-8" vertex="1">
          <mxGeometry x="45" y="90" width="10" height="50" as="geometry" />
        </mxCell>
        <mxCell id="_wbm24dfshIdzGIDaGAg-33" value="" style="html=1;points=[[0,0,0,0,5],[0,1,0,0,-5],[1,0,0,0,5],[1,1,0,0,-5]];perimeter=orthogonalPerimeter;outlineConnect=0;targetShapes=umlLifeline;portConstraint=eastwest;newEdgeStyle={&quot;curved&quot;:0,&quot;rounded&quot;:0};fillColor=#ffe6cc;strokeColor=#d79b00;" parent="_wbm24dfshIdzGIDaGAg-8" vertex="1">
          <mxGeometry x="45" y="220" width="10" height="100" as="geometry" />
        </mxCell>
        <mxCell id="_wbm24dfshIdzGIDaGAg-10" value=":ContactController" style="shape=umlLifeline;perimeter=lifelinePerimeter;whiteSpace=wrap;html=1;container=1;dropTarget=0;collapsible=0;recursiveResize=0;outlineConnect=0;portConstraint=eastwest;newEdgeStyle={&quot;curved&quot;:0,&quot;rounded&quot;:0};fillColor=#e1d5e7;strokeColor=#9673a6;" parent="1" vertex="1">
          <mxGeometry x="300" y="160" width="140" height="320" as="geometry" />
        </mxCell>
        <mxCell id="_wbm24dfshIdzGIDaGAg-11" value="" style="html=1;points=[[0,0,0,0,5],[0,1,0,0,-5],[1,0,0,0,5],[1,1,0,0,-5]];perimeter=orthogonalPerimeter;outlineConnect=0;targetShapes=umlLifeline;portConstraint=eastwest;newEdgeStyle={&quot;curved&quot;:0,&quot;rounded&quot;:0};fillColor=#e1d5e7;strokeColor=#9673a6;" parent="_wbm24dfshIdzGIDaGAg-10" vertex="1">
          <mxGeometry x="65" y="60" width="10" height="260" as="geometry" />
        </mxCell>
        <mxCell id="_wbm24dfshIdzGIDaGAg-12" value=":Contact" style="shape=umlLifeline;perimeter=lifelinePerimeter;whiteSpace=wrap;html=1;container=1;dropTarget=0;collapsible=0;recursiveResize=0;outlineConnect=0;portConstraint=eastwest;newEdgeStyle={&quot;curved&quot;:0,&quot;rounded&quot;:0};fillColor=#f8cecc;strokeColor=#b85450;" parent="1" vertex="1">
          <mxGeometry x="490" y="160" width="100" height="320" as="geometry" />
        </mxCell>
        <mxCell id="_wbm24dfshIdzGIDaGAg-13" value="" style="html=1;points=[[0,0,0,0,5],[0,1,0,0,-5],[1,0,0,0,5],[1,1,0,0,-5]];perimeter=orthogonalPerimeter;outlineConnect=0;targetShapes=umlLifeline;portConstraint=eastwest;newEdgeStyle={&quot;curved&quot;:0,&quot;rounded&quot;:0};fillColor=#f8cecc;strokeColor=#b85450;" parent="_wbm24dfshIdzGIDaGAg-12" vertex="1">
          <mxGeometry x="45" y="60" width="10" height="260" as="geometry" />
        </mxCell>
        <mxCell id="_wbm24dfshIdzGIDaGAg-14" value=":ContactRepo" style="shape=umlLifeline;perimeter=lifelinePerimeter;whiteSpace=wrap;html=1;container=1;dropTarget=0;collapsible=0;recursiveResize=0;outlineConnect=0;portConstraint=eastwest;newEdgeStyle={&quot;curved&quot;:0,&quot;rounded&quot;:0};fillColor=#dae8fc;strokeColor=#6c8ebf;" parent="1" vertex="1">
          <mxGeometry x="740" y="160" width="100" height="320" as="geometry" />
        </mxCell>
        <mxCell id="_wbm24dfshIdzGIDaGAg-15" value="" style="html=1;points=[[0,0,0,0,5],[0,1,0,0,-5],[1,0,0,0,5],[1,1,0,0,-5]];perimeter=orthogonalPerimeter;outlineConnect=0;targetShapes=umlLifeline;portConstraint=eastwest;newEdgeStyle={&quot;curved&quot;:0,&quot;rounded&quot;:0};fillColor=#dae8fc;strokeColor=#6c8ebf;" parent="_wbm24dfshIdzGIDaGAg-14" vertex="1">
          <mxGeometry x="45" y="60" width="10" height="260" as="geometry" />
        </mxCell>
        <mxCell id="_wbm24dfshIdzGIDaGAg-16" value="Press Contact Form Link" style="html=1;verticalAlign=bottom;startArrow=oval;startFill=1;endArrow=block;startSize=8;curved=0;rounded=0;" parent="1" target="_wbm24dfshIdzGIDaGAg-11" edge="1">
          <mxGeometry width="60" relative="1" as="geometry">
            <mxPoint x="50" y="240" as="sourcePoint" />
            <mxPoint x="340" y="240" as="targetPoint" />
          </mxGeometry>
        </mxCell>
        <mxCell id="_wbm24dfshIdzGIDaGAg-18" value="renderContactForm()" style="html=1;verticalAlign=bottom;endArrow=block;curved=0;rounded=0;" parent="1" edge="1">
          <mxGeometry width="80" relative="1" as="geometry">
            <mxPoint x="365" y="280" as="sourcePoint" />
            <mxPoint x="195" y="280" as="targetPoint" />
          </mxGeometry>
        </mxCell>
        <mxCell id="_wbm24dfshIdzGIDaGAg-19" value="displayContactForm()" style="html=1;verticalAlign=bottom;endArrow=block;curved=0;rounded=0;" parent="1" source="_wbm24dfshIdzGIDaGAg-9" edge="1">
          <mxGeometry width="80" relative="1" as="geometry">
            <mxPoint x="175" y="280" as="sourcePoint" />
            <mxPoint x="45" y="280" as="targetPoint" />
          </mxGeometry>
        </mxCell>
        <mxCell id="_wbm24dfshIdzGIDaGAg-21" value="Fill and Submit Contact Form" style="html=1;verticalAlign=bottom;startArrow=oval;startFill=1;endArrow=block;startSize=8;curved=0;rounded=0;" parent="1" target="_wbm24dfshIdzGIDaGAg-11" edge="1">
          <mxGeometry x="0.0016" width="60" relative="1" as="geometry">
            <mxPoint x="50" y="360" as="sourcePoint" />
            <mxPoint x="110" y="360" as="targetPoint" />
            <mxPoint as="offset" />
          </mxGeometry>
        </mxCell>
        <mxCell id="_wbm24dfshIdzGIDaGAg-24" value="submitContactForm()" style="html=1;verticalAlign=bottom;endArrow=block;curved=0;rounded=0;" parent="1" target="_wbm24dfshIdzGIDaGAg-13" edge="1">
          <mxGeometry x="0.002" width="80" relative="1" as="geometry">
            <mxPoint x="380" y="360" as="sourcePoint" />
            <mxPoint x="530" y="360" as="targetPoint" />
            <mxPoint as="offset" />
          </mxGeometry>
        </mxCell>
        <mxCell id="_wbm24dfshIdzGIDaGAg-25" value="processContactForm($contactData)" style="html=1;verticalAlign=bottom;endArrow=block;curved=0;rounded=0;" parent="1" source="_wbm24dfshIdzGIDaGAg-13" edge="1">
          <mxGeometry width="80" relative="1" as="geometry">
            <mxPoint x="550" y="360" as="sourcePoint" />
            <mxPoint x="785" y="360" as="targetPoint" />
          </mxGeometry>
        </mxCell>
        <mxCell id="_wbm24dfshIdzGIDaGAg-26" value="create($sql)" style="html=1;verticalAlign=bottom;endArrow=block;curved=0;rounded=0;entryX=0.041;entryY=0.538;entryDx=0;entryDy=0;entryPerimeter=0;" parent="1" source="_wbm24dfshIdzGIDaGAg-15" target="_wbm24dfshIdzGIDaGAg-7" edge="1">
          <mxGeometry width="80" relative="1" as="geometry">
            <mxPoint x="800" y="360" as="sourcePoint" />
            <mxPoint x="980" y="360" as="targetPoint" />
          </mxGeometry>
        </mxCell>
        <mxCell id="_wbm24dfshIdzGIDaGAg-27" value="$result" style="html=1;verticalAlign=bottom;endArrow=open;dashed=1;endSize=8;curved=0;rounded=0;" parent="1" edge="1">
          <mxGeometry relative="1" as="geometry">
            <mxPoint x="985" y="400" as="sourcePoint" />
            <mxPoint x="795" y="400" as="targetPoint" />
          </mxGeometry>
        </mxCell>
        <mxCell id="_wbm24dfshIdzGIDaGAg-28" value="$result" style="html=1;verticalAlign=bottom;endArrow=open;dashed=1;endSize=8;curved=0;rounded=0;" parent="1" edge="1">
          <mxGeometry relative="1" as="geometry">
            <mxPoint x="785" y="400" as="sourcePoint" />
            <mxPoint x="545" y="400" as="targetPoint" />
          </mxGeometry>
        </mxCell>
        <mxCell id="_wbm24dfshIdzGIDaGAg-29" value="$result" style="html=1;verticalAlign=bottom;endArrow=open;dashed=1;endSize=8;curved=0;rounded=0;" parent="1" edge="1">
          <mxGeometry relative="1" as="geometry">
            <mxPoint x="535" y="400" as="sourcePoint" />
            <mxPoint x="375" y="400" as="targetPoint" />
          </mxGeometry>
        </mxCell>
        <mxCell id="_wbm24dfshIdzGIDaGAg-34" value="renderResult($result)" style="html=1;verticalAlign=bottom;endArrow=block;curved=0;rounded=0;" parent="1" edge="1">
          <mxGeometry width="80" relative="1" as="geometry">
            <mxPoint x="365" y="400" as="sourcePoint" />
            <mxPoint x="195" y="400" as="targetPoint" />
          </mxGeometry>
        </mxCell>
        <mxCell id="_wbm24dfshIdzGIDaGAg-36" value="displayResult($result)" style="html=1;verticalAlign=bottom;endArrow=block;curved=0;rounded=0;" parent="1" edge="1">
          <mxGeometry width="80" relative="1" as="geometry">
            <mxPoint x="185" y="400" as="sourcePoint" />
            <mxPoint x="45" y="400" as="targetPoint" />
          </mxGeometry>
        </mxCell>
      </root>
    </mxGraphModel>
  </diagram>
</mxfile>
